<svg id="pig-eyes" width="419" height="474" viewBox="0 0 419 474" fill="none" xmlns="http://www.w3.org/2000/svg">
<style>
    @keyframes pig-eyes {
        0%{transform: translateX(0%);}
        50%{transform: translateX(10%);}
        100%{transform: translateX(0%);}
    }
    .left-eye, .right-eye{
        animation-name: pig-eyes;
        animation-duration: 3s;
        animation-iteration-count: infinite;
    }
</style>
<g clip-path="url(#clip0_145_2253)">
<path d="M204.732 473.991C309.671 473.991 394.741 466.549 394.741 457.368C394.741 448.188 309.671 440.746 204.732 440.746C99.793 440.746 14.7231 448.188 14.7231 457.368C14.7231 466.549 99.793 473.991 204.732 473.991Z" fill="#DDDDDD"/>
<path d="M90.4076 277.546C102.731 300.986 127.857 314.444 152.088 325.145C185.32 339.821 219.659 351.969 254.727 361.461C261.456 363.279 268.518 365.013 275.33 363.528C281.884 362.089 287.469 357.799 292.084 352.938C319.823 323.715 316.389 277.98 326.506 238.988C330.91 222.006 338.137 205.817 341.876 188.687C345.614 171.557 345.485 152.536 336.023 137.758C321.559 115.149 291.134 109.864 264.299 108.821C234.059 107.65 203.717 109.172 173.753 113.332C154.516 116.007 112.423 117.068 97.8015 131.569C85.2752 143.985 89.2075 180.449 86.5121 197.681C82.3859 224.146 77.3181 252.64 90.4076 277.546Z" fill="white"/>
<path d="M182.117 261.311C190.351 261.053 194.661 256.284 195.086 248.618C194.394 239.486 188.772 235.16 181.267 235.317C173.726 235.464 167.892 240.039 168.464 248.674C168.999 256.773 173.79 261.569 182.117 261.311Z" fill="black"/>
<path d="M23.2065 249.605C39.2129 316.63 62.2163 381.617 82.8843 447.277C86.4012 458.531 95.8998 463.429 107.309 463.595C132.962 463.936 158.55 462.921 184.147 461.15C198.252 460.173 205.618 441.428 212.071 443.513C221.772 446.649 228.289 460.108 242.044 459.619C254.57 459.186 267.124 458.955 279.65 458.632C279.659 459.066 279.669 459.518 279.687 459.951C289.121 459.711 298.546 459.739 307.952 459.186C331.491 457.829 337.814 452.645 343.759 429.732C357.947 375.206 371.922 320.643 386.092 266.126C394.87 232.319 396.615 197.496 382.067 166.133C365.304 130.084 364.242 93.8499 367.639 56.1217C368.553 45.7073 369.375 35.2467 369.522 24.8139C369.827 1.90024 359.008 -5.23951 337.426 3.82816C312.863 14.1504 288.521 24.9061 264.133 35.6157C255.807 39.2594 247.924 40.6338 238.453 38.6506C214.111 33.531 189.372 34.2689 165.279 40.3756C155.448 42.8754 147.03 41.9437 137.974 38.4845C112.599 28.7988 87.232 19.0855 61.5701 10.2668C41.3729 3.33004 31.9943 10.2853 33.4343 31.188C35.2251 56.7213 37.8836 82.2178 40.9021 107.659C42.6098 121.948 41.9914 135.083 35.862 148.772C21.5265 180.864 14.8433 214.617 23.2065 249.605ZM288.558 141.762C303.42 141.07 316.232 152.674 316.675 167.231C317.109 181.565 304.795 194.471 290.33 194.747C275.773 195.042 263.358 182.903 263.238 168.245C263.118 154.067 274.241 142.426 288.558 141.762ZM205.138 180.459C241.517 179.508 273.844 210.244 274.804 246.746C275.783 283.92 246.225 314.822 208.665 315.883C170.993 316.962 140.42 287.942 139.497 250.196C138.528 212.993 168.252 181.436 205.138 180.459ZM119.522 144.391C133.802 144.16 147.122 156.991 147.002 170.847C146.891 184.25 134.697 196.887 121.202 197.561C106.728 198.308 93.9521 186.399 93.4352 171.705C92.9552 156.936 104.697 144.621 119.522 144.391Z" fill="black"/>
<path d="M240.133 259.955C249.281 259.614 253.656 254.319 253.813 246.727C253.979 238.637 248.357 233.684 240.548 233.841C232.96 233.988 227.496 238.342 227.763 247.004C228.013 255.278 232.573 259.549 240.133 259.955Z" fill="black"/>
<path d="M132.307 181.676C137.55 181.529 140.273 178.494 140.559 173.642C140.107 167.839 136.544 165.109 131.771 165.201C126.98 165.303 123.325 168.181 123.676 173.669C124.008 178.798 127.036 181.833 132.307 181.676Z" fill="black"/>
<path d="M295.897 177.488C301.103 177.341 303.844 174.306 304.112 169.454C303.706 163.652 300.115 160.921 295.352 161.013C290.58 161.115 286.878 163.993 287.238 169.481C287.58 174.61 290.607 177.645 295.897 177.488Z" fill="black"/>
<path d="M37.4588 128.359C37.4588 128.359 -14.6958 182.414 4.07065 270.683C22.8371 358.952 98.2259 256.385 98.2259 256.385L37.4588 128.359Z" fill="black"/>
<path d="M381.541 128.359C381.541 128.359 433.696 182.414 414.929 270.683C396.163 358.952 320.774 256.385 320.774 256.385L381.541 128.359Z" fill="black"/>
<path d="M352.519 131.975L342.78 136.116H342.771L341.183 136.79L315.688 147.61L258.604 171.834H258.595L251.865 174.684L232.037 183.106L232.028 183.115L222.4 187.202L222.299 187.239L222.262 186.482L220.877 160.663L220.72 157.757V157.739L219.649 137.777L219.243 130.185C221.939 126.597 224.643 123.322 227.366 120.324C242.856 103.231 258.539 95.4457 272.515 92.6138C286.656 89.7542 301.334 93.2872 312.835 101.986C313.297 102.336 313.768 102.696 314.238 103.047C315.318 103.858 316.408 104.689 317.515 105.528C317.885 105.814 318.263 106.091 318.642 106.386C319.029 106.672 319.426 106.976 319.814 107.272C325.971 111.93 332.285 116.69 337.694 120.785C337.703 120.785 337.722 120.795 337.722 120.813C345.623 126.781 351.614 131.292 352.427 131.91C352.436 131.901 352.436 131.901 352.436 131.91C352.491 131.956 352.519 131.975 352.519 131.975Z" fill="#819FBD"/>
<path d="M319.805 107.272C319.417 106.976 319.02 106.672 318.632 106.386C318.254 106.1 317.875 105.814 317.506 105.528C315.835 104.855 314.137 104.246 312.42 103.72C306.586 101.884 300.457 100.833 294.124 100.667C273.936 100.15 254.727 108.517 240.031 124.291C237.52 126.984 235.194 129.844 233.071 132.842C232.72 133.312 232.388 133.783 232.074 134.262C227.182 141.411 223.36 149.317 220.702 157.739V157.748L220.859 160.654C223.434 151.567 227.357 143.026 232.499 135.36C233.2 134.308 233.939 133.266 234.696 132.251C236.57 129.715 238.582 127.27 240.742 124.964C254.81 109.864 273.059 101.626 292.297 101.626C292.897 101.626 293.487 101.635 294.087 101.654C299.884 101.811 305.506 102.715 310.897 104.292C314.294 105.279 317.598 106.524 320.774 108.028C320.451 107.76 320.128 107.521 319.805 107.272Z" fill="#547594"/>
<path opacity="0.5" d="M218.837 123.774C218.865 124.586 218.911 125.398 218.966 126.2C218.902 125.388 218.865 124.595 218.837 123.774Z" fill="#819FBD"/>
<path opacity="0.5" d="M223.406 102.622C223.314 102.807 223.222 103.01 223.12 103.194L223.406 102.604C223.406 102.613 223.406 102.613 223.406 102.622Z" fill="#819FBD"/>
<path opacity="0.5" d="M251.865 174.684L232.037 183.106L232.028 183.115L222.4 187.211V187.202L222.308 186.713V186.704L222.262 186.473L220.877 160.654L220.72 157.748V157.739L219.649 137.777L219.243 130.185C221.939 126.597 224.643 123.322 227.366 120.324C228.52 124.235 229.951 128.589 231.733 133.34C231.853 133.644 231.963 133.949 232.083 134.262C232.222 134.622 232.37 134.991 232.508 135.36C233.523 137.998 234.65 140.747 235.896 143.616C237.327 146.928 238.923 150.387 240.696 154.003C243.834 160.432 247.517 167.332 251.865 174.684Z" fill="#819FBD"/>
<path d="M299.146 264.042C341.592 264.042 376.002 229.656 376.002 187.239C376.002 144.821 341.592 110.436 299.146 110.436C256.699 110.436 222.289 144.821 222.289 187.239C222.289 229.656 256.699 264.042 299.146 264.042Z" fill="#547594"/>
<path d="M75.3423 131.975L85.0809 136.116H85.0901L86.6778 136.79L112.174 147.61L169.258 171.834H169.267L175.996 174.684L195.824 183.106L195.833 183.115L205.461 187.202L205.563 187.239L205.6 186.482L206.984 160.663L207.141 157.757V157.739L208.212 137.777L208.618 130.185C205.923 126.597 203.218 123.322 200.495 120.324C185.005 103.231 169.322 95.4457 155.347 92.6138C141.205 89.7542 126.528 93.2872 115.026 101.986C114.564 102.336 114.094 102.696 113.623 103.047C112.543 103.858 111.454 104.689 110.346 105.528C109.977 105.814 109.598 106.091 109.22 106.386C108.832 106.672 108.435 106.976 108.047 107.272C101.89 111.93 95.5764 116.69 90.1671 120.785C90.1579 120.785 90.1394 120.795 90.1394 120.813C82.2378 126.781 76.2469 131.292 75.4346 131.91C75.4254 131.901 75.4254 131.901 75.4254 131.91C75.37 131.956 75.3423 131.975 75.3423 131.975Z" fill="#819FBD"/>
<path d="M107.078 108.019C110.254 106.515 113.558 105.27 116.955 104.283C122.346 102.705 127.968 101.801 133.765 101.645C134.365 101.626 134.955 101.617 135.555 101.617C154.793 101.617 173.051 109.854 187.11 124.955C189.27 127.27 191.282 129.705 193.156 132.242C193.913 133.257 194.642 134.299 195.353 135.351C200.495 143.016 204.418 151.558 206.993 160.644L207.15 157.739C204.492 149.317 200.67 141.411 195.778 134.262C195.464 133.783 195.132 133.312 194.781 132.842C192.667 129.844 190.332 126.984 187.821 124.291C173.125 108.517 153.925 100.15 133.728 100.667C127.395 100.833 121.275 101.884 115.432 103.72C113.706 104.255 112.017 104.855 110.346 105.528C109.977 105.814 109.598 106.091 109.22 106.386C108.832 106.672 108.435 106.976 108.047 107.272C107.734 107.521 107.401 107.76 107.078 108.019Z" fill="#547594"/>
<path opacity="0.5" d="M209.015 123.774C208.987 124.586 208.941 125.398 208.886 126.2C208.95 125.388 208.997 124.595 209.015 123.774Z" fill="#819FBD"/>
<path opacity="0.5" d="M204.455 102.622C204.547 102.807 204.64 103.01 204.741 103.194L204.455 102.604C204.455 102.613 204.455 102.613 204.455 102.622Z" fill="#819FBD"/>
<path opacity="0.5" d="M175.996 174.684L195.824 183.106L195.833 183.115L205.461 187.211V187.202L205.553 186.713V186.704L205.6 186.473L206.984 160.654L207.141 157.748V157.739L208.212 137.777L208.618 130.185C205.923 126.597 203.218 123.322 200.495 120.324C199.341 124.235 197.91 128.589 196.129 133.34C196.009 133.644 195.898 133.949 195.778 134.262C195.639 134.622 195.492 134.991 195.353 135.36C194.338 137.998 193.212 140.747 191.966 143.616C190.535 146.928 188.938 150.387 187.165 154.003C184.027 160.432 180.344 167.332 175.996 174.684Z" fill="#819FBD"/>
<path d="M128.715 264.042C171.162 264.042 205.572 229.656 205.572 187.239C205.572 144.821 171.162 110.436 128.715 110.436C86.2687 110.436 51.8589 144.821 51.8589 187.239C51.8589 229.656 86.2687 264.042 128.715 264.042Z" fill="#547594"/>
<path d="M223.268 127.879C222.179 124.143 218.726 121.403 214.637 121.403C210.548 121.403 207.095 124.143 206.006 127.879H205.997L201.271 143.782H227.985L223.268 127.879Z" fill="#819FBD"/>
<path d="M214.637 162.923C222.498 162.923 228.871 156.554 228.871 148.699C228.871 140.843 222.498 134.475 214.637 134.475C206.776 134.475 200.403 140.843 200.403 148.699C200.403 156.554 206.776 162.923 214.637 162.923Z" fill="#293E49"/>
<path d="M214.637 156.844C210.141 156.844 206.486 153.191 206.486 148.699C206.486 144.206 210.141 140.553 214.637 140.553C219.132 140.553 222.788 144.206 222.788 148.699C222.778 153.191 219.123 156.844 214.637 156.844ZM214.637 141.54C210.686 141.54 207.464 144.751 207.464 148.708C207.464 152.656 210.677 155.875 214.637 155.875C218.588 155.875 221.809 152.665 221.809 148.708C221.8 144.751 218.588 141.54 214.637 141.54Z" fill="#657D94"/>
<path d="M214.637 156.844C210.141 156.844 206.486 153.191 206.486 148.699C206.486 144.206 210.141 140.553 214.637 140.553C219.132 140.553 222.788 144.206 222.788 148.699C222.778 153.191 219.123 156.844 214.637 156.844Z" fill="#657D94"/>
<g opacity="0.5">
<path opacity="0.5" d="M222.64 147.177C221.92 150.94 218.597 153.791 214.637 153.791C210.667 153.791 207.354 150.94 206.624 147.177C206.532 147.675 206.486 148.182 206.486 148.699C206.486 153.191 210.141 156.844 214.637 156.844C219.123 156.844 222.778 153.191 222.778 148.699C222.778 148.182 222.732 147.675 222.64 147.177Z" fill="#819FBD"/>
</g>
<path d="M284.561 98.1485C284.385 97.4751 284.321 96.7556 284.376 96.0361C284.45 95.3166 284.635 94.6063 284.884 93.9237C285.438 92.5677 286.278 91.35 287.229 90.2431C288.17 89.1454 289.269 88.1584 290.349 87.2728C291.419 86.3504 292.564 85.5109 293.699 84.6623C298.324 81.3691 303.493 78.7217 308.995 76.9691C314.497 75.2256 320.34 74.294 326.211 74.4785C332.072 74.6445 337.962 75.8529 343.417 78.1498C348.854 80.4744 353.885 83.8044 358.039 87.9647C362.239 92.1341 365.497 96.9124 368.276 101.875C373.778 111.875 377.027 122.603 379.63 133.386C374.507 123.516 369.956 113.424 363.937 104.513C360.919 100.086 357.623 95.8516 353.811 92.3924C351.91 90.6398 349.87 89.0531 347.7 87.6879C345.549 86.295 343.269 85.0866 340.906 84.0904C331.435 80.0777 320.626 79.4874 310.343 81.8396C305.183 82.9927 300.161 84.8929 295.352 87.3466C294.161 87.9739 292.961 88.6104 291.807 89.3207C290.607 89.994 289.518 90.7136 288.466 91.5253C287.422 92.3371 286.481 93.2687 285.752 94.3664C285.392 94.9107 285.087 95.5011 284.865 96.1375C284.681 96.774 284.57 97.4474 284.561 98.1485Z" fill="white"/>
<path d="M321.088 77.6886C326.202 76.8399 331.38 76.5448 336.466 77.458C337.546 77.6517 338.996 78.8324 340.131 79.2475C343.648 80.5205 346.685 82.8174 349.574 85.1881C363.605 96.7003 375.818 111.146 381.541 128.368C387.264 145.59 385.676 165.829 374.562 180.182C370.658 162.628 359.368 148.228 346.491 136.172C336.448 126.763 320.451 109.338 305.829 108.498C303.217 108.351 300.604 108.849 298.02 109.227C289.998 110.417 281.21 107.576 284.109 97.5858C284.912 94.8277 286.73 92.457 288.816 90.4737C295.167 84.4317 303.9 81.6644 312.411 79.5427C315.272 78.8232 318.171 78.1683 321.088 77.6886Z" fill="black"/>
<path d="M332.58 91.9773C328.952 90.6674 325.408 89.2007 321.808 87.9462C318.217 86.7009 314.58 85.6309 310.86 85.0958C307.167 84.5332 303.383 84.5516 299.709 85.2342C296.035 85.9261 292.481 87.3558 289.398 89.6896C291.955 86.7747 295.583 84.8191 299.386 83.8321C303.207 82.8174 307.232 82.7159 311.127 83.2694C315.014 83.869 318.771 85.0589 322.325 86.5994C325.897 88.1491 329.285 89.9848 332.58 91.9773Z" fill="white"/>
<path d="M134.439 98.1485C134.429 97.4474 134.328 96.774 134.134 96.1376C133.922 95.5011 133.608 94.9107 133.248 94.3665C132.519 93.2687 131.568 92.3463 130.534 91.5253C129.482 90.7136 128.392 90.0033 127.192 89.3207C126.029 88.6196 124.839 87.9831 123.648 87.3466C118.848 84.8929 113.817 82.9927 108.657 81.8396C98.3736 79.4781 87.5642 80.0777 78.0933 84.0904C75.7302 85.0866 73.4594 86.295 71.2993 87.6879C69.1301 89.0624 67.0808 90.6398 65.1885 92.3924C61.3761 95.8516 58.0807 100.086 55.0622 104.513C49.0436 113.424 44.4928 123.516 39.3696 133.386C41.9727 122.603 45.2313 111.875 50.7236 101.875C53.4929 96.9124 56.7607 92.1341 60.9607 87.9647C65.1146 83.8044 70.1455 80.4744 75.5825 78.1498C81.0379 75.8529 86.9272 74.6445 92.7889 74.4785C98.6597 74.3032 104.494 75.2257 110.005 76.9691C115.515 78.731 120.675 81.3784 125.3 84.6623C126.436 85.511 127.58 86.3504 128.651 87.2728C129.731 88.1584 130.829 89.1454 131.771 90.2431C132.713 91.3408 133.562 92.5585 134.116 93.9237C134.374 94.6155 134.559 95.3258 134.623 96.0361C134.679 96.7556 134.614 97.4751 134.439 98.1485Z" fill="white"/>
<path d="M97.9118 77.6886C92.7979 76.8399 87.6194 76.5448 82.5331 77.458C81.4531 77.6517 80.0039 78.8324 78.8685 79.2475C75.3515 80.5205 72.3145 82.8174 69.4252 85.1881C55.3943 96.7003 43.1818 111.146 37.4586 128.368C31.7355 145.59 33.3232 165.829 44.4372 180.182C48.3419 162.628 59.6313 148.228 72.5084 136.172C82.5516 126.763 98.5488 109.338 113.171 108.498C115.783 108.351 118.395 108.849 120.98 109.227C129.002 110.417 137.789 107.576 134.891 97.5858C134.088 94.8277 132.269 92.457 130.183 90.4737C123.832 84.4317 115.1 81.6644 106.589 79.5427C103.727 78.8232 100.829 78.1683 97.9118 77.6886Z" fill="black"/>
<path d="M86.4194 91.9773C89.7149 89.9756 93.1026 88.1399 96.6657 86.6087C100.22 85.0682 103.967 83.869 107.863 83.2786C111.758 82.7159 115.783 82.8266 119.605 83.8413C123.408 84.8283 127.035 86.7839 129.592 89.6989C126.509 87.3651 122.955 85.9445 119.281 85.2434C115.608 84.5608 111.823 84.5424 108.131 85.1051C104.42 85.6401 100.783 86.7101 97.1827 87.9554C93.5918 89.2007 90.0472 90.6674 86.4194 91.9773Z" fill="white"/>
<path d="M331.085 130.074C347.811 141.494 358.796 160.69 358.796 182.46C358.796 217.476 330.392 245.86 295.352 245.86C261.068 245.86 233.154 218.676 231.963 184.702C231.935 185.449 231.908 186.196 231.908 186.943C231.908 223.325 261.419 252.815 297.826 252.815C334.232 252.815 363.743 223.325 363.743 186.943C363.743 162.683 350.617 141.504 331.085 130.074Z" fill="black"/>
<path d="M297.826 121.071C309.955 121.071 321.318 124.364 331.085 130.074C320.903 123.128 308.607 119.06 295.352 119.06C260.311 119.06 231.908 147.444 231.908 182.46C231.908 183.217 231.935 183.955 231.963 184.702C233.145 149.363 262.176 121.071 297.826 121.071Z" fill="url(#paint0_linear_145_2253)"/>
<path d="M295.352 245.851C330.392 245.851 358.796 217.467 358.796 182.451C358.796 160.681 347.811 141.485 331.084 130.065C321.318 124.346 309.964 121.062 297.825 121.062C262.176 121.062 233.144 149.354 231.963 184.693C233.144 218.676 261.059 245.851 295.352 245.851ZM293.635 125.933C321.078 125.933 343.325 148.164 343.325 175.588C343.325 203.012 321.078 225.243 293.635 225.243C266.191 225.243 243.945 203.012 243.945 175.588C243.945 148.164 266.191 125.933 293.635 125.933Z" fill="black"/>
<path d="M295.352 245.851C330.392 245.851 358.796 217.467 358.796 182.451C358.796 160.681 347.811 141.485 331.084 130.065C321.318 124.346 309.964 121.062 297.825 121.062C262.176 121.062 233.144 149.354 231.963 184.693C233.144 218.676 261.059 245.851 295.352 245.851ZM293.635 125.933C321.078 125.933 343.325 148.164 343.325 175.588C343.325 203.012 321.078 225.243 293.635 225.243C266.191 225.243 243.945 203.012 243.945 175.588C243.945 148.164 266.191 125.933 293.635 125.933Z" fill="url(#paint1_linear_145_2253)"/>
<path d="M293.635 225.243C321.078 225.243 343.325 203.012 343.325 175.588C343.325 148.164 321.078 125.933 293.635 125.933C266.191 125.933 243.945 148.164 243.945 175.588C243.945 203.012 266.191 225.243 293.635 225.243Z" fill="white"/>
<path class="right-eye" d="M274.697 204.55C282.08 202.808 286.652 195.415 284.908 188.037C283.165 180.66 275.767 176.091 268.385 177.833C261.002 179.575 256.43 186.968 258.174 194.346C259.917 201.723 267.315 206.292 274.697 204.55Z" fill="black"/>
<path d="M161.005 130.074C177.732 141.494 188.717 160.69 188.717 182.46C188.717 217.476 160.313 245.86 125.273 245.86C90.989 245.86 63.0748 218.676 61.884 184.702C61.8563 185.449 61.8286 186.196 61.8286 186.943C61.8286 223.325 91.3398 252.815 127.746 252.815C164.153 252.815 193.664 223.325 193.664 186.943C193.674 162.683 180.547 141.504 161.005 130.074Z" fill="black"/>
<path d="M127.755 121.071C139.885 121.071 151.248 124.364 161.014 130.074C150.833 123.128 138.537 119.06 125.281 119.06C90.2409 119.06 61.8374 147.444 61.8374 182.46C61.8374 183.217 61.8651 183.955 61.8928 184.702C63.0743 149.363 92.0963 121.071 127.755 121.071Z" fill="url(#paint2_linear_145_2253)"/>
<path d="M125.272 245.851C160.313 245.851 188.716 217.467 188.716 182.451C188.716 160.681 177.732 141.485 161.005 130.065C151.239 124.346 139.885 121.062 127.746 121.062C92.0965 121.062 63.0653 149.354 61.8838 184.693C63.0746 218.676 90.9888 245.851 125.272 245.851ZM123.555 125.933C150.999 125.933 173.245 148.164 173.245 175.588C173.245 203.012 150.999 225.243 123.555 225.243C96.112 225.243 73.8655 203.012 73.8655 175.588C73.8655 148.164 96.1212 125.933 123.555 125.933Z" fill="black"/>
<path d="M125.272 245.851C160.313 245.851 188.716 217.467 188.716 182.451C188.716 160.681 177.732 141.485 161.005 130.065C151.239 124.346 139.885 121.062 127.746 121.062C92.0965 121.062 63.0653 149.354 61.8838 184.693C63.0746 218.676 90.9888 245.851 125.272 245.851ZM123.555 125.933C150.999 125.933 173.245 148.164 173.245 175.588C173.245 203.012 150.999 225.243 123.555 225.243C96.112 225.243 73.8655 203.012 73.8655 175.588C73.8655 148.164 96.1212 125.933 123.555 125.933Z" fill="url(#paint3_linear_145_2253)"/>
<path d="M123.556 225.243C150.999 225.243 173.246 203.012 173.246 175.588C173.246 148.164 150.999 125.933 123.556 125.933C96.1122 125.933 73.8657 148.164 73.8657 175.588C73.8657 203.012 96.1214 225.243 123.556 225.243Z" fill="white"/>
<path class="left-eye" d="M104.627 204.559C112.009 202.817 116.581 195.424 114.838 188.047C113.094 180.669 105.696 176.101 98.3138 177.843C90.9311 179.585 86.3595 186.978 88.1027 194.355C89.846 201.733 97.244 206.301 104.627 204.559Z" fill="black"/>
<path d="M87.3242 274.668C85.515 279.363 82.718 283.653 79.3857 287.481C76.0348 291.3 72.1209 294.639 67.8193 297.37C63.5177 300.109 58.8377 302.249 53.9637 303.67C49.0898 305.072 44.0128 305.792 38.9912 305.441C43.7636 303.882 48.3329 302.249 52.7176 300.266C57.1115 298.301 61.3208 296.041 65.3362 293.486C69.3609 290.931 73.1917 288.071 76.8287 284.926C80.4841 281.78 83.8996 278.34 87.3242 274.668Z" fill="white"/>
<path d="M338.589 275.692C342.014 279.363 345.429 282.804 349.085 285.95C352.722 289.095 356.553 291.955 360.577 294.51C364.602 297.065 368.811 299.325 373.196 301.29C377.59 303.273 382.15 304.906 386.922 306.465C381.901 306.816 376.824 306.096 371.95 304.694C367.076 303.273 362.387 301.133 358.094 298.394C353.793 295.654 349.879 292.315 346.528 288.505C343.196 284.686 340.399 280.387 338.589 275.692Z" fill="white"/>
<path d="M331.214 365.179L269.459 366.064C266.837 366.101 264.677 364.007 264.64 361.388L264.114 324.96C264.077 322.34 266.173 320.182 268.794 320.145L330.549 319.259C333.171 319.222 335.331 321.316 335.368 323.936L335.894 360.364C335.931 362.983 333.835 365.142 331.214 365.179Z" fill="white"/>
<path d="M277.481 356.074C277.462 356.416 277.388 356.683 277.25 356.858C277.111 357.034 276.917 357.126 276.668 357.135C276.373 357.135 276.151 357.015 276.004 356.775C275.856 356.526 275.782 356.148 275.773 355.613C275.764 355.087 275.828 354.7 275.967 354.451C276.105 354.202 276.317 354.073 276.622 354.073C276.871 354.073 277.065 354.146 277.213 354.303C277.361 354.46 277.434 354.681 277.444 354.967L277.194 354.977C277.185 354.755 277.121 354.589 277.028 354.469C276.927 354.349 276.797 354.294 276.622 354.294C276.41 354.294 276.262 354.405 276.161 354.617C276.068 354.829 276.022 355.161 276.022 355.604C276.031 356.047 276.087 356.379 276.188 356.591C276.29 356.803 276.447 356.904 276.659 356.904C276.825 356.904 276.964 356.831 277.065 356.683C277.167 356.535 277.222 356.342 277.231 356.074H277.481Z" fill="black"/>
<path d="M277.942 357.052L278.69 354.1H278.976L279.807 357.034H279.557L279.299 356.111L278.413 356.12L278.173 357.043L277.942 357.052ZM278.45 355.899L279.243 355.89L278.828 354.423L278.45 355.899Z" fill="black"/>
<path d="M280.296 357.024L280.25 354.082L280.822 354.073C281.145 354.073 281.376 354.128 281.523 354.239C281.671 354.358 281.754 354.543 281.754 354.792C281.754 354.977 281.726 355.133 281.653 355.253C281.579 355.373 281.477 355.456 281.32 355.521C281.45 355.558 281.551 355.622 281.606 355.714C281.662 355.807 281.708 355.954 281.717 356.166C281.726 356.231 281.726 356.314 281.736 356.425C281.754 356.729 281.8 356.923 281.883 357.006H281.597C281.551 356.951 281.514 356.766 281.505 356.471C281.496 356.388 281.496 356.323 281.496 356.277C281.477 356.01 281.431 355.844 281.366 355.761C281.293 355.678 281.163 355.641 280.979 355.65L280.517 355.659L280.536 357.034L280.296 357.024ZM280.526 355.429H280.776C281.053 355.429 281.246 355.373 281.357 355.281C281.468 355.189 281.523 355.032 281.523 354.829C281.523 354.635 281.468 354.497 281.357 354.414C281.246 354.331 281.071 354.285 280.831 354.294L280.508 354.303L280.526 355.429Z" fill="black"/>
<path d="M282.474 356.987L282.428 354.045H282.714L283.868 356.591L283.831 354.026H284.062L284.108 356.969H283.822L282.668 354.469L282.705 356.987H282.474Z" fill="black"/>
<path d="M284.828 356.96L284.782 354.017H285.031L285.078 356.96H284.828Z" fill="black"/>
<path d="M286.241 356.932L286.204 354.229L285.53 354.239V353.999L287.127 353.98V354.22L286.462 354.229L286.499 356.932H286.241Z" fill="black"/>
<path d="M287.431 356.914L288.179 353.962H288.465L289.296 356.895H289.047L288.788 355.973L287.902 355.982L287.662 356.904L287.431 356.914ZM287.939 355.761L288.733 355.751L288.317 354.285L287.939 355.761Z" fill="black"/>
<path d="M289.684 356.047H289.933C289.942 356.259 289.997 356.425 290.099 356.535C290.201 356.655 290.33 356.711 290.496 356.701C290.681 356.701 290.828 356.646 290.93 356.535C291.031 356.425 291.087 356.286 291.087 356.102C291.087 356.01 291.068 355.936 291.041 355.871C291.013 355.807 290.957 355.751 290.893 355.696C290.828 355.65 290.717 355.585 290.542 355.53C290.468 355.502 290.404 355.484 290.367 355.465C290.136 355.373 289.97 355.262 289.877 355.143C289.776 355.013 289.73 354.857 289.73 354.654C289.73 354.432 289.794 354.248 289.942 354.1C290.09 353.953 290.274 353.879 290.496 353.879C290.727 353.879 290.911 353.943 291.05 354.073C291.188 354.202 291.253 354.386 291.253 354.617V354.635H291.022C291.013 354.46 290.957 354.331 290.874 354.239C290.791 354.146 290.671 354.1 290.524 354.109C290.367 354.109 290.237 354.165 290.136 354.266C290.034 354.368 289.988 354.506 289.988 354.663C289.988 354.737 289.997 354.801 290.025 354.866C290.044 354.93 290.081 354.986 290.117 355.032C290.191 355.115 290.339 355.189 290.579 355.281C290.625 355.299 290.653 355.309 290.671 355.318C290.911 355.41 291.087 355.512 291.188 355.641C291.29 355.761 291.345 355.917 291.345 356.12C291.345 356.379 291.281 356.582 291.133 356.729C290.985 356.877 290.782 356.951 290.533 356.96C290.274 356.96 290.071 356.886 289.933 356.738C289.776 356.563 289.693 356.342 289.684 356.047Z" fill="black"/>
<path d="M293.044 356.84L292.998 353.897L294.345 353.879V354.109L293.265 354.128L293.284 355.189L294.253 355.17V355.392L293.284 355.41L293.302 356.609L294.382 356.591V356.821L293.044 356.84Z" fill="black"/>
<path d="M294.881 355.973H295.13C295.139 356.185 295.195 356.351 295.296 356.462C295.398 356.582 295.527 356.637 295.693 356.628C295.878 356.628 296.025 356.572 296.127 356.462C296.229 356.351 296.284 356.213 296.284 356.028C296.284 355.936 296.266 355.862 296.238 355.798C296.21 355.733 296.155 355.678 296.09 355.622C296.026 355.576 295.915 355.512 295.739 355.456C295.665 355.429 295.601 355.41 295.564 355.392C295.333 355.299 295.167 355.189 295.075 355.069C294.973 354.94 294.927 354.783 294.927 354.58C294.927 354.359 294.992 354.174 295.139 354.026C295.287 353.879 295.472 353.805 295.693 353.805C295.924 353.805 296.109 353.87 296.247 353.999C296.386 354.128 296.45 354.312 296.45 354.543V354.561H296.219C296.21 354.386 296.155 354.257 296.072 354.165C295.989 354.073 295.869 354.026 295.721 354.036C295.564 354.036 295.435 354.091 295.333 354.192C295.232 354.294 295.185 354.432 295.185 354.589C295.185 354.663 295.195 354.727 295.222 354.792C295.241 354.857 295.278 354.912 295.315 354.958C295.389 355.041 295.536 355.115 295.776 355.207C295.822 355.226 295.85 355.235 295.869 355.244C296.109 355.336 296.284 355.438 296.386 355.567C296.487 355.687 296.542 355.844 296.542 356.047C296.542 356.305 296.478 356.508 296.33 356.655C296.182 356.803 295.979 356.877 295.73 356.886C295.472 356.886 295.269 356.812 295.13 356.665C294.973 356.48 294.89 356.259 294.881 355.973Z" fill="black"/>
<path d="M297.604 356.775L297.567 354.073L296.893 354.082V353.842L298.49 353.823V354.063L297.825 354.073L297.862 356.775H297.604Z" fill="black"/>
<path d="M299.016 356.748L298.97 353.805H299.219L299.266 356.748H299.016Z" fill="black"/>
<path d="M299.986 356.738L299.939 353.796H300.179L300.216 356.517L301.306 356.499V356.72L299.986 356.738Z" fill="black"/>
<path d="M301.758 355.235C301.748 354.709 301.813 354.322 301.952 354.073C302.09 353.823 302.302 353.694 302.607 353.694C302.902 353.694 303.124 353.805 303.272 354.054C303.419 354.294 303.493 354.681 303.502 355.207C303.512 355.733 303.447 356.12 303.309 356.369C303.17 356.618 302.958 356.748 302.653 356.748C302.358 356.748 302.136 356.628 301.988 356.388C301.841 356.148 301.767 355.77 301.758 355.235ZM302.007 355.235C302.016 355.678 302.072 356.01 302.173 356.213C302.275 356.425 302.432 356.526 302.644 356.526C302.856 356.526 303.004 356.416 303.105 356.203C303.198 355.991 303.244 355.659 303.244 355.216C303.235 354.774 303.179 354.442 303.078 354.229C302.976 354.017 302.819 353.916 302.607 353.916C302.395 353.916 302.247 354.026 302.145 354.239C302.044 354.46 301.998 354.792 302.007 355.235Z" fill="black"/>
<path d="M305.247 356.665L305.201 353.722L305.616 353.713L306.373 356.296L307.065 353.685L307.471 353.676L307.518 356.619H307.278L307.241 353.888L306.521 356.628H306.253L305.45 353.906L305.487 356.637L305.247 356.665Z" fill="black"/>
<path d="M308.229 356.618L308.183 353.676H308.432L308.478 356.618H308.229Z" fill="black"/>
<path d="M310.832 355.595C310.813 355.936 310.739 356.203 310.601 356.379C310.462 356.554 310.269 356.646 310.019 356.655C309.724 356.655 309.502 356.535 309.355 356.296C309.207 356.047 309.133 355.668 309.124 355.133C309.115 354.608 309.179 354.22 309.318 353.971C309.456 353.722 309.669 353.593 309.973 353.593C310.222 353.593 310.416 353.667 310.564 353.823C310.712 353.98 310.785 354.202 310.795 354.488L310.545 354.497C310.536 354.275 310.472 354.109 310.379 353.99C310.287 353.87 310.149 353.814 309.973 353.814C309.761 353.814 309.613 353.925 309.512 354.137C309.419 354.349 309.373 354.681 309.373 355.124C309.382 355.567 309.438 355.899 309.539 356.111C309.641 356.323 309.798 356.425 310.01 356.425C310.176 356.425 310.315 356.351 310.416 356.203C310.518 356.056 310.573 355.862 310.582 355.595H310.832Z" fill="black"/>
<path d="M311.496 356.572L311.45 353.63H311.699L311.718 354.875L312.881 354.857L312.863 353.611H313.112L313.158 356.554H312.909L312.89 355.087L311.727 355.106L311.746 356.572H311.496Z" fill="black"/>
<path d="M313.786 355.069C313.776 354.543 313.841 354.156 313.979 353.906C314.118 353.657 314.33 353.528 314.635 353.528C314.93 353.528 315.152 353.639 315.299 353.888C315.447 354.128 315.521 354.515 315.53 355.041C315.539 355.567 315.475 355.954 315.336 356.203C315.198 356.452 314.986 356.582 314.681 356.582C314.386 356.582 314.164 356.462 314.016 356.222C313.869 355.982 313.795 355.595 313.786 355.069ZM314.035 355.06C314.044 355.502 314.099 355.834 314.201 356.037C314.302 356.25 314.459 356.351 314.672 356.351C314.884 356.351 315.032 356.24 315.133 356.028C315.226 355.816 315.272 355.484 315.272 355.041C315.262 354.598 315.207 354.266 315.106 354.054C315.004 353.842 314.847 353.74 314.635 353.74C314.422 353.74 314.275 353.851 314.173 354.063C314.081 354.294 314.035 354.617 314.035 355.06Z" fill="black"/>
<path d="M315.982 356.508L316.73 353.556H317.016L317.847 356.489H317.598L317.339 355.567L316.453 355.576L316.213 356.499L315.982 356.508ZM316.49 355.355L317.284 355.346L316.869 353.879L316.49 355.355Z" fill="black"/>
<path d="M319.97 355.465C319.952 355.807 319.878 356.074 319.74 356.25C319.601 356.425 319.407 356.517 319.158 356.526C318.863 356.526 318.641 356.406 318.493 356.166C318.346 355.917 318.272 355.539 318.263 355.004C318.253 354.478 318.318 354.091 318.456 353.842C318.595 353.593 318.807 353.464 319.112 353.464C319.361 353.464 319.555 353.537 319.703 353.694C319.85 353.851 319.924 354.073 319.933 354.358L319.684 354.368C319.675 354.146 319.61 353.98 319.518 353.86C319.426 353.74 319.287 353.685 319.112 353.685C318.9 353.685 318.752 353.796 318.65 354.008C318.558 354.22 318.512 354.552 318.512 354.995C318.521 355.438 318.576 355.77 318.678 355.982C318.78 356.194 318.936 356.296 319.149 356.296C319.315 356.296 319.453 356.222 319.555 356.074C319.656 355.927 319.712 355.733 319.721 355.465H319.97Z" fill="black"/>
<path d="M320.432 356.443L321.179 353.491H321.465L322.296 356.425H322.047L321.789 355.502L320.902 355.512L320.662 356.434L320.432 356.443ZM320.939 355.29L321.733 355.281L321.318 353.814L320.939 355.29ZM321.115 353.242L321.447 352.717H321.761L321.29 353.242H321.115Z" fill="black"/>
<path d="M322.795 356.406L322.749 353.464H323.035L324.189 356.01L324.152 353.445H324.383L324.429 356.388H324.143L322.989 353.888L323.026 356.406H322.795Z" fill="black"/>
<path d="M283.979 352.246L283.767 337.828L288.521 337.764L288.549 339.728L285.936 339.765L285.992 343.391L288.549 343.354L288.576 345.254L286.019 345.291L286.093 350.235L288.706 350.198L288.733 352.182L283.979 352.246Z" fill="black"/>
<path d="M290.044 337.736L292.592 337.699C293.662 337.681 294.438 337.884 294.918 338.289C295.398 338.695 295.647 339.369 295.666 340.31L295.693 341.988C295.702 342.736 295.546 343.298 295.223 343.686C294.899 344.073 294.355 344.331 293.607 344.47V344.544C294.318 344.544 294.853 344.71 295.213 345.033C295.573 345.355 295.758 345.844 295.767 346.499L295.813 349.442C295.823 350.088 295.859 350.623 295.933 351.047C295.998 351.471 296.099 351.813 296.238 352.071L293.967 352.108C293.866 351.877 293.792 351.61 293.746 351.287C293.699 350.964 293.672 350.558 293.662 350.069L293.653 349.433L293.607 346.287C293.607 345.983 293.506 345.752 293.312 345.614C293.118 345.466 292.813 345.402 292.416 345.411H292.324L292.426 352.135L290.284 352.163L290.044 337.736ZM293.524 342.653L293.487 340.3C293.487 339.978 293.413 339.747 293.275 339.59C293.136 339.433 292.933 339.359 292.666 339.369L292.195 339.378L292.259 343.63L292.73 343.621C292.998 343.621 293.201 343.538 293.33 343.381C293.469 343.206 293.533 342.966 293.524 342.653Z" fill="black"/>
<path d="M299.654 352.015L297.512 352.043L297.3 337.625L299.441 337.598L299.654 352.015Z" fill="black"/>
<path d="M301.352 337.57L303.9 337.533C304.971 337.515 305.746 337.718 306.226 338.123C306.706 338.529 306.955 339.203 306.974 340.144L307.001 342.044C307.011 342.634 306.835 343.123 306.484 343.501C306.134 343.879 305.608 344.147 304.915 344.304V344.378C305.626 344.424 306.161 344.608 306.521 344.94C306.881 345.263 307.057 345.734 307.066 346.333L307.112 349.276C307.121 350.198 306.9 350.872 306.429 351.296C305.958 351.72 305.192 351.942 304.121 351.951L301.574 351.988L301.352 337.57ZM304.832 342.487L304.795 340.134C304.795 339.811 304.721 339.581 304.583 339.424C304.444 339.267 304.241 339.193 303.974 339.203L303.503 339.212L303.567 343.464L304.038 343.455C304.306 343.455 304.509 343.372 304.638 343.215C304.777 343.049 304.841 342.809 304.832 342.487ZM303.604 345.217L303.678 350.207L304.149 350.198C304.417 350.198 304.62 350.115 304.749 349.958C304.878 349.802 304.943 349.562 304.943 349.248L304.897 346.121C304.897 345.807 304.823 345.577 304.694 345.429C304.564 345.282 304.361 345.208 304.084 345.217H303.604Z" fill="black"/>
<path d="M308.192 351.896L309.706 337.45L312.974 337.404L314.746 351.803L312.558 351.831L312.06 347.957L310.721 347.975L310.315 351.868L308.192 351.896ZM310.878 346.103L311.875 346.084L311.598 342.496C311.58 342.182 311.552 341.822 311.515 341.398C311.478 340.983 311.423 340.374 311.34 339.581H311.238C311.22 339.793 311.192 340.31 311.155 341.14C311.127 341.712 311.1 342.173 311.081 342.533L310.878 346.103Z" fill="black"/>
<path d="M283.453 336.74L283.352 329.545L285.724 329.508L285.742 330.486L284.441 330.504L284.469 332.312L285.742 332.294L285.752 333.244L284.478 333.262L284.515 335.734L285.816 335.716L285.835 336.703L283.453 336.74Z" fill="black"/>
<path d="M287.542 336.675L287.441 329.48L288.512 329.462L288.604 335.67L289.906 335.651L289.924 336.638L287.542 336.675Z" fill="black"/>
<path d="M275.505 352.329L275.247 334.369L278.413 334.323C279.733 334.304 280.693 334.544 281.302 335.052C281.911 335.559 282.225 336.38 282.244 337.515L282.308 341.924C282.327 343.077 282.041 343.916 281.45 344.451C280.859 344.986 279.899 345.263 278.579 345.282L278.08 345.291L278.182 352.292L275.505 352.329ZM279.613 341.97L279.548 337.561C279.539 337.164 279.456 336.869 279.29 336.675C279.124 336.481 278.865 336.389 278.533 336.389L277.951 336.398L278.053 343.16L278.634 343.151C278.967 343.142 279.216 343.049 279.382 342.856C279.539 342.662 279.622 342.367 279.613 341.97Z" fill="black"/>
<path d="M316.647 351.794L316.389 333.834L320.46 333.779L321.567 341.131C321.761 342.45 321.955 343.806 322.121 345.199C322.296 346.591 322.463 348.012 322.61 349.47L322.758 349.451C322.703 347.994 322.666 346.693 322.629 345.558C322.592 344.424 322.573 343.667 322.573 343.28L322.361 333.742L324.576 333.714L324.835 351.674L320.866 351.729L319.435 341.822C319.195 340.125 319.01 338.861 318.899 338.04C318.789 337.219 318.696 336.518 318.632 335.956H318.447C318.493 337.275 318.521 338.299 318.549 339.046C318.567 339.793 318.586 340.263 318.586 340.466L318.835 351.766L316.647 351.794Z" fill="black"/>
<path d="M327.503 361.95L273.078 362.734C270.456 362.771 268.296 360.677 268.259 358.058L267.825 328.189C267.788 325.569 269.884 323.41 272.505 323.373L326.931 322.589C329.552 322.552 331.712 324.646 331.749 327.266L332.183 357.135C332.22 359.755 330.125 361.913 327.503 361.95Z" stroke="black" stroke-width="3" stroke-miterlimit="10"/>
</g>
<defs>
<linearGradient id="paint0_linear_145_2253" x1="231.906" y1="151.879" x2="358.79" y2="151.879" gradientUnits="userSpaceOnUse">
<stop offset="0.2731" stop-color="#C5E0F0" stop-opacity="0.9"/>
<stop offset="0.8514" stop-color="#FFF2F2" stop-opacity="0.4"/>
</linearGradient>
<linearGradient id="paint1_linear_145_2253" x1="231.963" y1="183.462" x2="358.79" y2="183.462" gradientUnits="userSpaceOnUse">
<stop offset="0.2731" stop-color="#C5E0F0" stop-opacity="0.9"/>
<stop offset="0.8514" stop-color="#FFF2F2" stop-opacity="0.4"/>
</linearGradient>
<linearGradient id="paint2_linear_145_2253" x1="61.8329" y1="151.879" x2="188.717" y2="151.879" gradientUnits="userSpaceOnUse">
<stop offset="0.2731" stop-color="#C5E0F0" stop-opacity="0.9"/>
<stop offset="0.8514" stop-color="#FFF2F2" stop-opacity="0.4"/>
</linearGradient>
<linearGradient id="paint3_linear_145_2253" x1="61.8899" y1="183.462" x2="188.717" y2="183.462" gradientUnits="userSpaceOnUse">
<stop offset="0.2731" stop-color="#C5E0F0" stop-opacity="0.9"/>
<stop offset="0.8514" stop-color="#FFF2F2" stop-opacity="0.4"/>
</linearGradient>
<clipPath id="clip0_145_2253">
<rect width="419" height="474" fill="white"/>
</clipPath>
</defs>
</svg>
