<svg id="pig_hello" width="279" height="614" viewBox="0 0 279 614" fill="none" xmlns="http://www.w3.org/2000/svg">
<path d="M201.082 282.865C211.483 259.819 230.968 201.14 208.869 119.632C208.869 119.632 129.846 116.134 81.1965 157.231C56.7724 147.168 30.1492 141.56 2.22818 141.56C-27.225 141.56 -55.3082 147.727 -80.7958 158.926C-129.266 116.008 -210.451 119.632 -210.451 119.632C-235.488 212.05 -207.08 275.111 -199.095 290.168C-206.413 312.33 -210.451 336.061 -210.451 360.766C-210.451 397.751 -201.529 429.219 -185.829 459.766L-164.865 614H-126.886L-120.83 595.661L-113.205 614H-73.6939L-70.215 563.544C-47.5934 571.984 -23.2054 578.295 2.2462 578.295C27.7158 578.295 52.1219 571.136 74.7435 562.679L78.2404 613.982H117.752L125.376 595.643L131.415 613.982H169.394L190.357 459.748C206.057 429.201 214.979 396.056 214.979 359.071C214.961 331.661 210.023 307.083 201.082 282.865ZM-188.659 150.973C-188.659 150.973 -146.173 152.127 -109.618 174.344C-140.423 194.017 -166.001 221.572 -183.666 254.301C-193.165 230.985 -199.239 196.921 -188.659 150.973ZM187.076 150.973C196.72 192.827 192.538 224.799 184.553 247.791C166.492 216.901 141.238 191.006 111.208 172.522C146.97 152.055 187.076 150.973 187.076 150.973Z" fill="black"/>
<path d="M99.4742 323.294C99.4742 331.463 93.0572 338.081 85.1262 338.081C77.2131 338.081 70.8142 331.463 70.8142 323.294C70.8142 315.125 77.2311 308.507 85.1262 308.507C93.0572 308.507 99.4742 315.125 99.4742 323.294Z" fill="white"/>
<path d="M89.5783 424.061C81.7554 383.704 45.9394 351.389 2.2463 351.389C-41.3927 351.389 -77.2448 383.722 -85.0677 424.061C-91.7731 458.648 -71.6209 482.884 2.2463 482.884C76.1316 482.902 96.3017 458.666 89.5783 424.061Z" fill="white"/>
<path d="M54.6817 424.187C54.6817 433.619 47.2733 441.246 38.1526 441.246C29.0138 441.246 21.6055 433.619 21.6055 424.187C21.6055 414.792 29.0138 407.165 38.1526 407.165C47.2553 407.165 54.6817 414.774 54.6817 424.187Z" fill="black"/>
<path d="M-187.595 454.573C-198.735 422.799 -204.953 387.653 -204.953 350.686C-204.953 329.209 -202.826 308.345 -198.897 288.383H197.098C201.046 308.327 203.155 329.191 203.155 350.686C203.155 387.671 196.936 422.799 185.797 454.573H195.801C237.763 406.371 263.341 342.716 263.341 272.893C263.341 122.5 145.042 0.580324 -0.890259 0.580324C-146.84 0.562292 -265.14 122.482 -265.14 272.875C-265.14 342.716 -239.562 406.371 -197.599 454.555H-187.595V454.573Z" fill="#535125"/>
<path d="M5.45473 354.96C41.2708 354.96 47.7959 404.73 85.5587 424.205C123.357 443.681 221.721 447.63 241.26 361.001C260.818 274.389 209.896 241.227 198.27 236.106C148.773 214.34 82.0077 212.447 5.32857 212.447C-71.3326 212.447 -138.098 214.34 -187.595 236.106C-199.221 241.227 -250.142 274.389 -230.603 361.001C-211.046 447.63 -112.682 443.663 -74.8835 424.205C-37.1028 404.73 -30.5776 354.96 5.23843 354.96H5.45473Z" fill="#F2F0E4"/>
<path d="M5.45476 361.235C40.3876 361.235 46.7324 409.761 83.5759 428.75C120.419 447.738 216.331 451.579 235.402 367.132C254.455 282.685 204.795 250.352 193.475 245.375C145.186 224.168 80.0971 222.311 5.3286 222.311C-69.4038 222.311 -134.511 224.168 -182.782 245.375C-194.12 250.352 -243.761 282.685 -224.709 367.132C-205.656 451.579 -109.744 447.738 -72.9007 428.75C-36.0392 409.761 -29.7124 361.235 5.22044 361.235H5.45476Z" fill="#5F5B4D"/>
<path d="M1.50711 330.002C18.7031 330.002 50.77 393.189 83.5398 410.068C116.292 426.947 190.627 424.242 208.761 366.447C231.779 293.089 183.58 266.383 174.224 260.54C137.363 237.531 48.1203 227.27 11.8536 257.529C11.8536 257.529 7.40137 260.793 1.52516 261.424C-4.35106 260.811 -8.8213 257.529 -8.8213 257.529C-45.07 227.27 -134.331 237.549 -171.174 260.54C-180.547 266.383 -228.729 293.089 -205.71 366.447C-187.577 424.224 -113.259 426.947 -80.4895 410.068C-47.7557 393.189 -15.6889 330.002 1.50711 330.002Z" fill="#F2F0E4"/>
<path d="M31.0685 333.537C55.5467 308.309 80.0069 283.117 104.467 257.89C75.6989 256.195 46.5701 260.45 29.6265 274.624C10.9343 285.155 18.0903 305.73 22.2542 315.955C24.3811 321.185 27.4094 327.225 31.0685 333.537Z" fill="#E0A431"/>
<path d="M150.666 265.842C141.509 263.119 131.307 260.937 120.708 259.494C120.546 259.783 120.419 260.089 120.149 260.36C92.8049 288.545 65.4787 316.73 38.1165 344.915C42.767 351.948 48.0123 359.071 53.6361 365.833C85.9733 332.509 118.311 299.184 150.666 265.842Z" id="space-color" fill="#E0A431"/>
<path d="M166.654 271.612C164.076 270.476 161.301 269.413 158.399 268.385L58.4128 371.388C68.4709 382.64 79.4663 392.324 90.1011 397.824C117.77 412.07 180.497 409.761 195.801 361.019C215.232 299.094 175.162 275.345 166.654 271.612Z" fill="#E0A431"/>
<path d="M276.914 364.084C276.914 372.253 270.461 378.925 262.512 378.925C254.563 378.925 248.11 372.271 248.11 364.084V297.291C248.11 289.086 254.563 282.45 262.512 282.45C270.461 282.45 276.914 289.086 276.914 297.291V364.084Z" fill="#5F5B4D"/>
<path d="M262.512 380.368C253.806 380.368 246.74 373.065 246.74 364.084V297.291C246.74 288.311 253.824 281.008 262.512 281.008C271.218 281.008 278.302 288.311 278.302 297.291V364.084C278.284 373.065 271.218 380.368 262.512 380.368ZM262.512 283.893C255.338 283.893 249.498 289.898 249.498 297.273V364.066C249.498 371.442 255.338 377.447 262.512 377.447C269.686 377.447 275.526 371.442 275.526 364.066V297.273C275.526 289.898 269.686 283.893 262.512 283.893Z" fill="#F2F0E4"/>
<path d="M39.1079 5.37701V216.198C45.3987 216.234 51.6174 216.288 57.782 216.36V8.47865C57.079 8.20815 39.3603 5.39505 39.1079 5.37701Z" fill="#1D1311" stroke="white" stroke-width="1.402" stroke-miterlimit="10"/>
</svg>
